<svg xmlns="http://www.w3.org/2000/svg" xmlns:xlink="http://www.w3.org/1999/xlink" width="16" height="18" version="1.1" viewBox="0 0 16 18"><title>箭头</title><g id="页面-1" fill="none" fill-rule="evenodd" stroke="none" stroke-width="1"><g id="OKR审批界面（总）待审批" fill="#BFC7D5" transform="translate(-240.000000, -204.000000)"><g id="编组-5" transform="translate(212.000000, 176.000000)"><path id="箭头" d="M38.6098001,28.1168918 C38.6572216,28.0171324 38.7765353,27.9747042 38.8762947,28.0221257 L38.8762947,28.0221257 L43.767903,30.3473949 C43.8577411,30.3901002 43.9284442,30.4647469 43.9662154,30.5567684 C44.0501004,30.7611364 43.9524297,30.9948116 43.7480617,31.0786966 L43.7480617,31.0786966 L39.0335807,33.0138053 C38.9913785,33.0311276 38.9445226,33.0335019 38.9007855,33.0205344 C38.7948851,32.9891361 38.7344892,32.8778336 38.7658875,32.7719333 L38.7658875,32.7719333 L39.2333643,31.1933947 C33.3589945,32.630141 28.9846865,38.1333499 28.9846865,44.7029566 C28.9846865,45.1399748 29.0040431,45.5722741 29.0419103,45.9989714 L28.0535325,45.9992933 C28.01809,45.5720922 28,45.139724 28,44.7029566 C28,37.556997 32.8423872,31.588639 39.2969418,30.1611992 L38.6026832,28.2716833 C38.5841589,28.2212261 38.586724,28.1654364 38.6098001,28.1168918 Z"/></g></g></g></svg>